<svg id="Capa_1" enable-background="new 0 0 512 512" height="512" viewBox="0 0 512 512" width="512" xmlns="http://www.w3.org/2000/svg"><g><g><path d="m485.176 251.202c-14.996-23.315-25.368-49.757-30.827-78.585l-5.03-26.63c-.77-4.07-4.697-6.747-8.762-5.978-4.07.77-6.747 4.692-5.978 8.762l5.031 26.634c5.821 30.735 16.907 58.967 32.951 83.912 15.987 24.849 24.437 53.678 24.437 83.373 0 41.381-16.16 80.241-45.504 109.421-29.132 28.97-67.736 44.891-108.798 44.89-.293 0-.592-.001-.885-.003-25.292-.144-49.921-6.371-71.909-18.079 6.59-4.888 12.874-10.285 18.798-16.176 32.195-32.017 49.926-74.654 49.926-120.058 0-32.575-9.275-64.211-26.824-91.486-15-23.314-25.37-49.755-30.822-78.586l-17.349-91.758.078-.412c3.468-18.358 13.304-35.034 27.696-46.958 14.38-11.921 32.593-18.485 51.285-18.485 38.585 0 71.796 27.523 78.97 65.443l6.399 33.84c.681 3.6 3.827 6.108 7.36 6.107.463 0 .932-.043 1.402-.132 4.07-.77 6.745-4.692 5.976-8.763l-6.399-33.841c-8.511-44.995-47.921-77.654-93.708-77.654-22.181 0-43.793 7.79-60.855 21.934-11.094 9.191-19.887 20.772-25.829 33.725-15.244-33.251-48.77-55.659-86.692-55.659-45.794 0-85.206 32.659-93.713 77.655l-18.26 96.573c-5.126 27.11-15.657 53.421-31.3 78.199-17.035 26.987-26.04 58.197-26.04 90.256 0 45.205 17.446 87.647 49.126 119.51 31.682 31.864 74.024 49.551 119.225 49.801.324.002.647.003.971.003 30.974-.001 60.675-8.258 86.601-23.748 25.83 15.37 55.385 23.576 85.802 23.748.324.002.647.003.972.003 45.051-.001 87.412-17.47 119.373-49.255 32.195-32.016 49.926-74.654 49.926-120.057.002-32.578-9.274-64.214-26.821-91.486zm-316.74 245.792c-84.605-.469-153.436-69.694-153.435-154.311 0-29.221 8.205-57.662 23.724-82.249 16.654-26.381 27.876-54.447 33.355-83.419l18.26-96.573c7.17-37.92 40.383-65.442 78.974-65.442s71.805 27.522 78.974 65.442l17.954 94.956c5.811 30.737 16.896 58.969 32.945 83.915 15.988 24.85 24.439 53.679 24.439 83.371 0 41.381-16.16 80.241-45.504 109.422-29.339 29.176-68.275 45.134-109.686 44.888z"/><path d="m284.618 268.692c-17.262-26.845-29.171-57.151-35.398-90.076l-17.951-94.961c-5.63-29.74-31.687-51.325-61.959-51.325-30.265 0-56.319 21.585-61.949 51.326l-8.53 45.12c-.769 4.07 1.906 7.993 5.977 8.763 4.074.768 7.993-1.906 8.763-5.976l8.529-45.118c4.291-22.665 24.145-39.115 47.211-39.115 23.071 0 42.93 16.45 47.22 39.112l17.951 94.96c6.587 34.83 19.211 66.927 37.523 95.406 12.623 19.609 19.296 42.389 19.296 65.88 0 32.577-12.687 63.211-35.722 86.254-23.046 23.037-53.68 35.724-86.257 35.724h-.709c-32.598-.179-63.112-12.906-85.921-35.838-22.811-22.943-35.368-53.539-35.359-86.152 0-23.116 6.477-45.587 18.732-64.986 18.83-29.833 31.54-61.684 37.777-94.669l3.21-16.97c.77-4.069-1.905-7.993-5.975-8.763-4.071-.769-7.994 1.905-8.763 5.976l-3.21 16.97c-5.885 31.124-17.904 61.219-35.721 89.448-13.77 21.798-21.049 47.039-21.049 72.993-.011 36.602 14.096 70.956 39.722 96.731 25.624 25.762 59.887 40.06 96.517 40.26h.75c36.583 0 70.982-14.247 96.864-40.118 25.868-25.879 40.115-60.278 40.115-96.861-.002-26.374-7.5-51.963-21.684-73.995z"/><path d="m169.311 419.318c-43.456 0-78.81-35.354-78.81-78.81 0-15.002 4.229-29.587 12.23-42.177 2.222-3.496 1.188-8.131-2.308-10.352-3.496-2.223-8.131-1.188-10.352 2.308-9.532 15-14.57 32.367-14.57 50.222 0 51.727 42.083 93.81 93.81 93.81 51.732 0 93.819-42.083 93.819-93.81 0-51.732-42.087-93.819-93.819-93.819-18.96 0-37.232 5.635-52.84 16.296-3.42 2.337-4.299 7.003-1.963 10.424 2.336 3.419 7.002 4.299 10.424 1.963 13.104-8.951 28.451-13.683 44.379-13.683 43.461 0 78.819 35.358 78.819 78.819 0 43.455-35.358 78.809-78.819 78.809z"/></g></g></svg>