<?xml version="1.0" encoding="iso-8859-1"?>
<!-- Generator: Adobe Illustrator 19.0.0, SVG Export Plug-In . SVG Version: 6.00 Build 0)  -->
<svg version="1.1" id="Capa_1" xmlns="http://www.w3.org/2000/svg" xmlns:xlink="http://www.w3.org/1999/xlink" x="0px" y="0px"
	 viewBox="0 0 512 512" style="enable-background:new 0 0 512 512;" xml:space="preserve">
<path style="fill:#F44336;" d="M418.88,344.021l-54.869-19.093c-4.015-1.393-8.473-0.27-11.349,2.859
	c-24.328,28.17-59.449,44.719-96.661,45.547c-37.201-0.828-72.313-17.368-96.64-45.525c-2.876-3.129-7.335-4.252-11.349-2.859
	l-54.869,19.093C37.383,363.423,0.006,415.978,0,475.008v15.659c0,5.891,4.776,10.667,10.667,10.667h490.667
	c5.891,0,10.667-4.776,10.667-10.667v-15.659C512.006,415.976,474.637,363.411,418.88,344.021z"/>
<path d="M224,202.667h-21.333c-5.891,0-10.667-4.776-10.667-10.667c0-5.891,4.776-10.667,10.667-10.667H224
	c5.891,0,10.667,4.776,10.667,10.667C234.667,197.891,229.891,202.667,224,202.667z"/>
<path d="M309.333,202.667H288c-5.891,0-10.667-4.776-10.667-10.667c0-5.891,4.776-10.667,10.667-10.667h21.333
	c5.891,0,10.667,4.776,10.667,10.667C320,197.891,315.224,202.667,309.333,202.667z"/>
<path style="fill:#FFE082;" d="M384,141.44c0-0.917,0-1.835,0-2.773c0-70.692-57.308-128-128-128s-128,57.308-128,128
	c0,0.917,0,1.856,0,2.773c-15.303,12.086-23.353,31.165-21.333,50.56c0,29.675,13.099,52.224,30.699,53.333
	C156.715,309.589,203.499,352,256,352s99.264-42.453,118.635-106.667c17.6-1.109,30.699-23.659,30.699-53.333
	C407.353,172.605,399.303,153.526,384,141.44z"/>
<g>
</g>
<g>
</g>
<g>
</g>
<g>
</g>
<g>
</g>
<g>
</g>
<g>
</g>
<g>
</g>
<g>
</g>
<g>
</g>
<g>
</g>
<g>
</g>
<g>
</g>
<g>
</g>
<g>
</g>
</svg>
